# xmcd
#
# Track frame offsets:
#	150
#	11708
#	26974
#	40528
#	57220
#	70204
#	86325
#	97598
#	111152
#	128699
#	143965
#	158660
#	175066
#	186053
#
# Disc length: 2636
#
# Revision: 1
# Processed by: cddbd v1.5.1PL0 Copyright (c) Steve Scherf et al.
# Submitted via: VisiTrax 2.9.10.220 - For more info visit www.synapsa.com
# Normalized: r0:DSETVAR1
#
DISCID=aa0a4a0e
DTITLE=Various Artist - Country in Rio
DYEAR=1989
DGENRE=Ang. Americ. Country Ligeiro
TTITLE0=Willie Nelson - On the road again
TTITLE1=Mary Chapin Carpenter - Down at the twist and shout
TTITLE2=Ricky Skaggs - Crying my heart out over you
TTITLE3=The Charlie Daniels Band - The devil went down to Georgia
TTITLE4=Ricky Van Shelton - Love is burnin´
TTITLE5=The O´Kanes - Tired of the runnin´
TTITLE6=Dolly Parton - Why´d you come in here lookin´ like that
TTITLE7=Ricky Skaggs - Kentucky thunder
TTITLE8=Chet Atkins - Mark knopfler - Poor boy blues
TTITLE9=Tammy Wynette - I´m turning you loose
TTITLE10=Willie Nelson - Nothing i can do about it now
TTITLE11=Johnny Cash - The Baron
TTITLE12=Little Joe - Margarita
TTITLE13=Moe Bandy - Jambalaya (on the bayou)
EXTD=
EXTT0=
EXTT1=
EXTT2=
EXTT3=
EXTT4=
EXTT5=
EXTT6=
EXTT7=
EXTT8=
EXTT9=
EXTT10=
EXTT11=
EXTT12=
EXTT13=
PLAYORDER=
